<svg xmlns="http://www.w3.org/2000/svg" x="0px" y="0px"
width="64" height="64"
viewBox="0 0 172 172"
style=" fill:#000000;"><g fill="none" fill-rule="nonzero" stroke="none" stroke-width="1" stroke-linecap="butt" 
stroke-linejoin="miter" stroke-miterlimit="10" stroke-dasharray="" stroke-dashoffset="0" font-family="none" 
font-weight="none" font-size="none" text-anchor="none" style="mix-blend-mode: normal">
<path d="M0,172v-172h172v172z" fill="none"></path>
<g fill="#ffffff"><path d="M86,27.86467c-37.04719,0 -67.1875,20.34471 -67.1875,45.35156c0,
13.59942 8.97255,26.37613 24.61716,35.05441c0.41052,0.22777 0.70681,0.61645 0.81767,
1.07231c0.11086,0.45587 0.02553,0.9376 -0.23482,1.32796l-22.30961,33.46408l52.08442,
-26.04221c0.29126,-0.1458 0.61846,-0.20324 0.9423,-0.16662c3.71648,0.42563 7.50854,
0.6413 11.27037,0.6413c37.04719,0 67.1875,-20.34471 67.1875,-45.35156c0,-25.00685 -30.14031,
-45.35123 -67.1875,-45.35123zM47.03125,58.09905h36.95313c0.92752,0 1.67969,0.75216 1.67969,
1.67969c0,0.92752 -0.75216,1.67969 -1.67969,1.67969h-36.95312c-0.92752,0 -1.67969,
-0.75216 -1.67969,-1.67969c0,-0.92752 0.75216,-1.67969 1.67969,-1.67969zM120.9375,88.33342h-73.90625c-0.92752,
0 -1.67969,-0.75183 -1.67969,-1.67969c0,-0.92786 0.75216,-1.67969 1.67969,-1.67969h73.90625c0.92786,
0 1.67969,0.75183 1.67969,1.67969c0,0.92786 -0.75183,1.67969 -1.67969,1.67969zM120.9375,74.89592h-73.90625c-0.92752,
0 -1.67969,-0.75216 -1.67969,-1.67969c0,-0.92752 0.75216,-1.67969 1.67969,-1.67969h73.90625c0.92786,
0 1.67969,0.75216 1.67969,1.67969c0,0.92752 -0.75183,1.67969 -1.67969,1.67969z"></path></g></g></svg>